<?xml version="1.0" encoding="utf-8"?>
<!-- Generator: Adobe Illustrator 15.1.0, SVG Export Plug-In . SVG Version: 6.00 Build 0)  -->
<!DOCTYPE svg PUBLIC "-//W3C//DTD SVG 1.1//EN" "http://www.w3.org/Graphics/SVG/1.1/DTD/svg11.dtd">
<svg version="1.1" id="Layer_1" xmlns="http://www.w3.org/2000/svg" xmlns:xlink="http://www.w3.org/1999/xlink" x="0px" y="0px"
	 width="17px" height="24px" viewBox="0 0 17 24" enable-background="new 0 0 17 24" xml:space="preserve">
<g>
	<defs>
		<rect id="SVGID_1_" x="0.916" y="-0.719" width="19.379" height="24"/>
	</defs>
	<clipPath id="SVGID_2_">
		<use xlink:href="#SVGID_1_"  overflow="visible"/>
	</clipPath>
	<path clip-path="url(#SVGID_2_)" fill="#f0f0f0" d="M35.988,18.489c-0.729,0.823-1.627,1.487-2.696,1.992
		c-1.07,0.503-2.309,0.756-3.718,0.756c-1.317,0-2.508-0.217-3.578-0.651c-1.068-0.435-1.973-1.034-2.713-1.798
		c-0.74-0.762-1.311-1.679-1.709-2.749c-0.399-1.068-0.599-2.237-0.599-3.507c0-1.198,0.211-2.325,0.634-3.382
		c0.422-1.058,1.016-1.979,1.78-2.766c0.763-0.788,1.667-1.41,2.712-1.868c1.046-0.458,2.204-0.688,3.472-0.688
		c1.386,0,2.607,0.247,3.666,0.741c1.056,0.492,1.96,1.163,2.712,2.008l-2.079,2.01c-0.494-0.611-1.092-1.094-1.797-1.446
		c-0.705-0.352-1.539-0.529-2.502-0.529c-0.846,0-1.604,0.159-2.273,0.476c-0.67,0.316-1.233,0.751-1.691,1.303
		c-0.459,0.553-0.811,1.188-1.057,1.903c-0.247,0.717-0.37,1.463-0.37,2.237c0,0.753,0.123,1.487,0.37,2.203
		c0.247,0.718,0.598,1.353,1.057,1.904c0.458,0.552,1.021,0.993,1.691,1.322c0.669,0.329,1.427,0.493,2.273,0.493
		c0.963,0,1.826-0.183,2.59-0.547c0.763-0.364,1.393-0.852,1.885-1.463L35.988,18.489z"/>
	<path clip-path="url(#SVGID_2_)" fill="#f0f0f0" d="M38.327,20.744v-14.8c0-0.517-0.013-1.046-0.036-1.585h3.031L41.429,7
		c0.187-0.281,0.435-0.592,0.74-0.933c0.304-0.341,0.675-0.653,1.109-0.934c0.436-0.282,0.94-0.522,1.516-0.723
		c0.575-0.198,1.239-0.299,1.99-0.299c0.353,0,0.675,0.024,0.969,0.071c0.294,0.047,0.569,0.118,0.829,0.211l-0.705,2.96
		c-0.424-0.163-0.964-0.246-1.621-0.246c-0.683,0-1.311,0.129-1.887,0.387c-0.576,0.259-1.074,0.617-1.498,1.076
		c-0.422,0.457-0.756,0.992-1.004,1.603c-0.246,0.611-0.369,1.257-0.369,1.939v8.633H38.327z"/>
	<path clip-path="url(#SVGID_2_)" fill="#f0f0f0" d="M57.153,21.237c-1.268,0-2.432-0.229-3.489-0.688
		c-1.057-0.457-1.968-1.086-2.731-1.885c-0.764-0.798-1.363-1.72-1.798-2.767c-0.435-1.044-0.651-2.165-0.651-3.365
		c0-1.198,0.216-2.319,0.651-3.365c0.435-1.044,1.034-1.966,1.798-2.766c0.763-0.797,1.674-1.427,2.731-1.885
		c1.057-0.458,2.221-0.688,3.489-0.688c1.245,0,2.397,0.229,3.454,0.688c1.057,0.458,1.973,1.088,2.748,1.885
		c0.775,0.8,1.38,1.722,1.815,2.766c0.434,1.046,0.652,2.167,0.652,3.365c0,1.2-0.218,2.321-0.652,3.365
		c-0.435,1.047-1.04,1.969-1.815,2.767c-0.775,0.799-1.691,1.428-2.748,1.885C59.55,21.009,58.398,21.237,57.153,21.237
		 M57.153,18.489c0.846,0,1.608-0.17,2.291-0.512c0.682-0.339,1.257-0.787,1.727-1.338c0.47-0.551,0.828-1.186,1.076-1.904
		c0.246-0.715,0.37-1.45,0.37-2.203c0-0.728-0.124-1.45-0.37-2.167c-0.248-0.717-0.611-1.356-1.093-1.921
		c-0.481-0.563-1.057-1.015-1.727-1.356c-0.668-0.34-1.427-0.511-2.273-0.511s-1.61,0.171-2.291,0.511
		c-0.682,0.341-1.257,0.787-1.728,1.338c-0.469,0.553-0.828,1.188-1.074,1.904c-0.247,0.717-0.37,1.451-0.37,2.202
		c0,0.753,0.123,1.481,0.37,2.187c0.246,0.704,0.609,1.339,1.092,1.903c0.481,0.563,1.058,1.017,1.728,1.355
		C55.549,18.319,56.307,18.489,57.153,18.489"/>
	<path clip-path="url(#SVGID_2_)" fill="#f0f0f0" d="M68.016,16.622c0.588,0.587,1.292,1.056,2.113,1.409
		c0.824,0.353,1.775,0.528,2.856,0.528c1.058,0,1.937-0.169,2.644-0.511c0.703-0.34,1.057-0.875,1.057-1.604
		c0-0.376-0.077-0.697-0.23-0.969c-0.152-0.269-0.411-0.51-0.773-0.722c-0.366-0.211-0.848-0.406-1.445-0.582
		c-0.6-0.177-1.346-0.37-2.238-0.582c-0.635-0.141-1.263-0.329-1.885-0.563c-0.623-0.235-1.182-0.547-1.674-0.934
		c-0.494-0.387-0.894-0.857-1.199-1.41c-0.305-0.552-0.457-1.215-0.457-1.99c0-0.799,0.182-1.498,0.545-2.098
		c0.364-0.598,0.852-1.103,1.463-1.516c0.611-0.409,1.299-0.721,2.062-0.933c0.762-0.211,1.555-0.317,2.377-0.317
		c1.387,0,2.579,0.183,3.578,0.547c0.998,0.364,1.873,0.875,2.625,1.533l-1.727,2.185c-0.494-0.446-1.109-0.822-1.85-1.127
		c-0.74-0.306-1.604-0.459-2.592-0.459c-1.009,0-1.82,0.165-2.432,0.494c-0.61,0.33-0.916,0.87-0.916,1.621
		c0,0.706,0.406,1.228,1.217,1.569s1.873,0.663,3.188,0.968c0.777,0.189,1.498,0.407,2.169,0.652
		c0.669,0.247,1.257,0.565,1.763,0.951c0.505,0.387,0.904,0.863,1.197,1.427c0.294,0.564,0.44,1.246,0.44,2.044
		c0,0.822-0.188,1.545-0.563,2.167c-0.377,0.623-0.881,1.146-1.516,1.569c-0.633,0.421-1.361,0.74-2.184,0.95
		c-0.823,0.212-1.682,0.317-2.574,0.317c-3.1,0-5.426-0.833-6.977-2.502L68.016,16.622z"/>
	<path clip-path="url(#SVGID_2_)" fill="#f0f0f0" d="M82.815,16.622c0.589,0.587,1.292,1.056,2.115,1.409
		c0.82,0.353,1.773,0.528,2.854,0.528c1.058,0,1.938-0.169,2.643-0.511c0.704-0.34,1.058-0.875,1.058-1.604
		c0-0.376-0.077-0.697-0.23-0.969c-0.151-0.269-0.41-0.51-0.774-0.722c-0.366-0.211-0.845-0.406-1.445-0.582
		c-0.599-0.177-1.345-0.37-2.236-0.582c-0.635-0.141-1.264-0.329-1.885-0.563c-0.624-0.235-1.183-0.547-1.676-0.934
		c-0.493-0.387-0.894-0.857-1.197-1.41c-0.305-0.552-0.459-1.215-0.459-1.99c0-0.799,0.183-1.498,0.546-2.098
		c0.364-0.598,0.852-1.103,1.462-1.516c0.613-0.409,1.298-0.721,2.062-0.933c0.765-0.211,1.557-0.317,2.38-0.317
		c1.385,0,2.577,0.183,3.576,0.547c0.997,0.364,1.872,0.875,2.625,1.533l-1.725,2.185c-0.494-0.446-1.11-0.822-1.851-1.127
		c-0.742-0.306-1.605-0.459-2.592-0.459c-1.009,0-1.821,0.165-2.433,0.494c-0.61,0.33-0.916,0.87-0.916,1.621
		c0,0.706,0.407,1.228,1.218,1.569s1.872,0.663,3.187,0.968c0.776,0.189,1.5,0.407,2.169,0.652c0.669,0.247,1.258,0.565,1.764,0.951
		c0.503,0.387,0.903,0.863,1.196,1.427c0.293,0.564,0.441,1.246,0.441,2.044c0,0.822-0.188,1.545-0.564,2.167
		c-0.376,0.623-0.88,1.146-1.517,1.569c-0.633,0.421-1.36,0.74-2.184,0.95c-0.822,0.212-1.68,0.317-2.571,0.317
		c-3.102,0-5.429-0.833-6.978-2.502L82.815,16.622z"/>
	<path clip-path="url(#SVGID_2_)" fill="#f0f0f0" d="M96.312,20.744V6.048c0-0.54-0.013-1.103-0.034-1.69h3.03l0.105,2.466
		c0.212-0.281,0.469-0.593,0.774-0.934c0.305-0.34,0.681-0.652,1.128-0.933c0.446-0.283,0.971-0.517,1.569-0.706
		c0.598-0.187,1.273-0.281,2.025-0.281c2.137,0,3.725,0.622,4.758,1.867c1.032,1.246,1.55,2.937,1.55,5.075v9.832h-3.172v-9.585
		c0-1.526-0.329-2.648-0.986-3.365s-1.585-1.074-2.784-1.074c-0.916,0-1.678,0.188-2.289,0.564c-0.612,0.375-1.1,0.863-1.464,1.463
		c-0.363,0.598-0.629,1.28-0.792,2.043c-0.166,0.764-0.247,1.545-0.247,2.343v7.612H96.312z"/>
	<path clip-path="url(#SVGID_2_)" fill="#f0f0f0" d="M128.956,18.348c-0.188,0.211-0.47,0.481-0.846,0.81
		c-0.376,0.33-0.863,0.647-1.462,0.952c-0.601,0.306-1.304,0.569-2.114,0.792c-0.811,0.223-1.735,0.335-2.766,0.335
		c-1.271,0-2.433-0.211-3.49-0.634c-1.058-0.424-1.963-1.022-2.713-1.796c-0.752-0.776-1.335-1.704-1.745-2.785
		c-0.41-1.08-0.616-2.279-0.616-3.595c0-1.198,0.2-2.32,0.598-3.365c0.398-1.045,0.963-1.95,1.692-2.713
		c0.729-0.763,1.592-1.369,2.59-1.815c0.999-0.447,2.097-0.67,3.296-0.67c1.409,0,2.618,0.27,3.629,0.811
		c1.009,0.54,1.838,1.257,2.485,2.15c0.645,0.893,1.12,1.915,1.425,3.065c0.306,1.152,0.459,2.349,0.459,3.595h-12.932
		c0.022,0.729,0.181,1.398,0.476,2.009c0.293,0.612,0.688,1.139,1.181,1.586c0.493,0.447,1.058,0.799,1.692,1.058
		c0.633,0.258,1.302,0.387,2.008,0.387c1.385,0,2.525-0.233,3.419-0.705c0.892-0.47,1.536-0.928,1.938-1.375L128.956,18.348z
		 M126.101,11.123c-0.093-1.269-0.54-2.349-1.338-3.242c-0.799-0.892-1.927-1.339-3.383-1.339c-0.752,0-1.43,0.129-2.025,0.388
		c-0.601,0.259-1.112,0.6-1.535,1.022c-0.423,0.424-0.75,0.911-0.986,1.463c-0.234,0.552-0.364,1.122-0.387,1.708H126.101z"/>
	<path clip-path="url(#SVGID_2_)" fill="#f0f0f0" d="M132.566,7h-2.962V4.357h2.962V-1h3.171v5.357h4.793V7h-4.793v8.07
		c0,1.315,0.206,2.22,0.616,2.714c0.412,0.492,0.993,0.739,1.745,0.739c0.61,0,1.116-0.093,1.516-0.282
		c0.398-0.187,0.799-0.47,1.197-0.845l1.445,1.938c-0.681,0.658-1.381,1.134-2.097,1.428c-0.718,0.292-1.568,0.44-2.555,0.44
		c-1.739,0-3.013-0.471-3.823-1.41c-0.812-0.94-1.216-2.408-1.216-4.404V7z"/>
	<path clip-path="url(#SVGID_2_)" fill="#f0f0f0" d="M15.495,16.693c-0.321-0.375-0.708-0.68-1.15-0.905
		c-0.462-0.235-0.983-0.353-1.55-0.353c-0.565,0-1.088,0.118-1.554,0.35c-0.451,0.225-0.84,0.527-1.156,0.9
		c-0.31,0.365-0.548,0.786-0.711,1.256c-0.157,0.462-0.237,0.938-0.237,1.417c0,0.481,0.08,0.957,0.239,1.414
		c0.164,0.464,0.406,0.885,0.72,1.251c0.318,0.375,0.706,0.68,1.15,0.906c0.462,0.233,0.983,0.353,1.549,0.353
		c0.563,0,1.086-0.118,1.555-0.352c0.451-0.226,0.839-0.528,1.155-0.898c0.309-0.363,0.549-0.786,0.711-1.256
		c0.158-0.46,0.238-0.938,0.238-1.418c0-0.468-0.081-0.938-0.238-1.398C16.054,17.49,15.811,17.063,15.495,16.693"/>
	<path clip-path="url(#SVGID_2_)" fill="#f0f0f0" d="M10.095,7.477c0.319,0.375,0.707,0.68,1.15,0.906
		c0.462,0.234,0.983,0.353,1.55,0.353c0.566,0,1.09-0.118,1.556-0.351c0.451-0.226,0.84-0.528,1.154-0.897
		c0.309-0.362,0.548-0.785,0.711-1.256c0.158-0.46,0.238-0.938,0.238-1.418c0-0.468-0.08-0.939-0.238-1.399
		c-0.162-0.469-0.404-0.896-0.721-1.267c-0.321-0.374-0.707-0.677-1.15-0.904c-0.461-0.233-0.983-0.353-1.551-0.353
		c-0.564,0-1.086,0.118-1.554,0.351c-0.451,0.225-0.84,0.528-1.155,0.898c-0.31,0.363-0.547,0.785-0.711,1.257
		C9.217,3.857,9.138,4.334,9.138,4.812c0,0.48,0.079,0.955,0.239,1.414C9.539,6.689,9.781,7.111,10.095,7.477"/>
	<path clip-path="url(#SVGID_2_)" fill="#f0f0f0" d="M7.274,9.481c-0.321-0.375-0.707-0.68-1.15-0.905
		c-0.462-0.235-0.983-0.353-1.55-0.353c-0.565,0-1.088,0.118-1.554,0.351C2.57,8.799,2.181,9.101,1.865,9.472
		c-0.309,0.363-0.547,0.786-0.711,1.258c-0.157,0.461-0.237,0.938-0.237,1.416c0,0.481,0.08,0.957,0.239,1.415
		c0.164,0.463,0.406,0.884,0.719,1.25c0.32,0.375,0.707,0.679,1.151,0.906c0.461,0.234,0.982,0.353,1.549,0.353
		c0.564,0,1.088-0.118,1.554-0.351c0.452-0.225,0.841-0.527,1.155-0.898c0.31-0.362,0.549-0.784,0.712-1.256
		c0.158-0.46,0.238-0.937,0.238-1.418c0-0.468-0.081-0.938-0.238-1.399C7.833,10.278,7.59,9.851,7.274,9.481"/>
</g>
</svg>
